<?xml version="1.0" encoding="UTF-8"?>
<svg id="LETRAS" xmlns="http://www.w3.org/2000/svg" version="1.1" viewBox="0 0 726.7 414.7">
  <!-- Generator: Adobe Illustrator 29.3.1, SVG Export Plug-In . SVG Version: 2.1.0 Build 151)  -->
  <rect x="160.2" y="38" width="405.1" height="324.4" rx="39.1" ry="39.1"/>
  <g>
    <path d="M132.6,223.6v30.4l-108.1-46.8v-26l108.1-46.8v30.6l-75.3,29,75.3,29.6Z"/>
    <path d="M700.9,207.1l-108.1,47.1v-30.4l75.5-29.6-75.5-29.2v-30.2l108.1,46.6v25.8Z"/>
  </g>
  <g>
    <g>
      <path d="M380.8,112.1v174.8h-46v-68.6l-46.6,65.7h-.3l-46.7-65.7v68.6h-46V112.1h18.5l74.3,101.8,74.3-101.8h18.5Z" fill="#fff"/>
      <path d="M401.8,257.6l27.8-27.3c7.2,10.6,20.6,17.1,35.1,17.1s19.3-3.5,19.3-10.6-17.7-16.8-34.7-24.3c-21.9-9.5-40.7-23.8-40.7-50s28.5-51.3,61.3-51.3,47.1,12.5,53.8,29.5l-26.5,25.6c-5.2-9.1-18.5-13.1-26.7-13.1s-16.2,4.8-16.2,10.7,12.2,10.5,30.9,18.4c27.1,11.4,45,27.9,45,53.5s-30.7,53.5-65.4,53.5-54.4-12.6-63.1-31.7Z" fill="#fff"/>
    </g>
    <g>
      <g>
        <path d="M380.8,112.1v174.8h-46v-68.6l-46.6,65.7h-.3l-46.7-65.7v68.6h-46V112.1h18.5l74.3,101.8,74.3-101.8h18.5Z" fill="#fff"/>
        <path d="M380.8,112.1v174.8h-46v-68.6l-46.6,65.7h-.3l-46.7-65.7v68.6h-46V112.1h18.5l74.3,101.8,74.3-101.8h18.5Z" fill="#fff"/>
      </g>
      <g>
        <path d="M401.8,257.6l27.8-27.3c7.2,10.6,20.6,17.1,35.1,17.1s19.3-3.5,19.3-10.6-17.7-16.8-34.7-24.3c-21.9-9.5-40.7-23.8-40.7-50s28.5-51.3,61.3-51.3,47.1,12.5,53.8,29.5l-26.5,25.6c-5.2-9.1-18.5-13.1-26.7-13.1s-16.2,4.8-16.2,10.7,12.2,10.5,30.9,18.4c27.1,11.4,45,27.9,45,53.5s-30.7,53.5-65.4,53.5-54.4-12.6-63.1-31.7Z" fill="#fff"/>
        <path d="M401.8,257.6l27.8-27.3c7.2,10.6,20.6,17.1,35.1,17.1s19.3-3.5,19.3-10.6-17.7-16.8-34.7-24.3c-21.9-9.5-40.7-23.8-40.7-50s28.5-51.3,61.3-51.3,47.1,12.5,53.8,29.5l-26.5,25.6c-5.2-9.1-18.5-13.1-26.7-13.1s-16.2,4.8-16.2,10.7,12.2,10.5,30.9,18.4c27.1,11.4,45,27.9,45,53.5s-30.7,53.5-65.4,53.5-54.4-12.6-63.1-31.7Z" fill="#fff"/>
      </g>
    </g>
  </g>
</svg>